<?xml version="1.0" standalone="no"?><!DOCTYPE svg PUBLIC "-//W3C//DTD SVG 1.1//EN" "http://www.w3.org/Graphics/SVG/1.1/DTD/svg11.dtd"><svg t="1531552479292" class="icon" style="" viewBox="0 0 1024 1024" version="1.1" xmlns="http://www.w3.org/2000/svg" p-id="5136" xmlns:xlink="http://www.w3.org/1999/xlink" width="200" height="200"><defs><style type="text/css"></style></defs><path d="M891.072 718.784c0 19.296-15.168 34.432-34.464 34.432H649.856a174.08 174.08 0 0 0-103.392 34.464V236.32a103.232 103.232 0 0 1 103.36-103.392h206.784c19.296 0 34.464 15.168 34.464 34.464v551.36zM477.536 787.68a174.08 174.08 0 0 0-103.36-34.464H167.36a34.112 34.112 0 0 1-34.464-34.432V167.36c0-19.296 15.168-34.464 34.464-34.464h206.752a103.232 103.232 0 0 1 103.392 103.36v551.392zM856.64 64H649.888C593.344 64 543.68 91.584 512 134.304 480.32 91.584 430.656 64 374.144 64H167.392A103.232 103.232 0 0 0 64 167.36v551.424a103.232 103.232 0 0 0 103.36 103.36h206.784a103.232 103.232 0 0 1 103.392 103.392C477.536 944.832 492.704 960 512 960s34.464-15.168 34.464-34.464a103.232 103.232 0 0 1 103.36-103.36h206.784A103.232 103.232 0 0 0 960 718.752V167.36A103.232 103.232 0 0 0 856.64 64z" p-id="5137"></path></svg>